<mxfile host="65bd71144e">
    <diagram name="PÃ¡gina-1" id="lxS2CNAL6hp_V3PkIYL_">
        <mxGraphModel dx="1476" dy="1211" grid="1" gridSize="10" guides="1" tooltips="1" connect="1" arrows="1" fold="1" page="0" pageScale="1" pageWidth="827" pageHeight="1169" math="0" shadow="0">
            <root>
                <mxCell id="0"/>
                <mxCell id="1" parent="0"/>
                <mxCell id="jM-bACAt7TGIaR6FnqXF-10" value="" style="endArrow=none;html=1;rounded=0;endFill=0;" parent="1" edge="1">
                    <mxGeometry relative="1" as="geometry">
                        <mxPoint x="210" y="50" as="sourcePoint"/>
                        <mxPoint x="370" y="50" as="targetPoint"/>
                    </mxGeometry>
                </mxCell>
                <mxCell id="jM-bACAt7TGIaR6FnqXF-12" value="N" style="edgeLabel;resizable=0;html=1;align=left;verticalAlign=bottom;" parent="jM-bACAt7TGIaR6FnqXF-10" connectable="0" vertex="1">
                    <mxGeometry x="-1" relative="1" as="geometry">
                        <mxPoint y="-1" as="offset"/>
                    </mxGeometry>
                </mxCell>
                <mxCell id="jM-bACAt7TGIaR6FnqXF-13" value="N" style="edgeLabel;resizable=0;html=1;align=right;verticalAlign=bottom;" parent="jM-bACAt7TGIaR6FnqXF-10" connectable="0" vertex="1">
                    <mxGeometry x="1" relative="1" as="geometry"/>
                </mxCell>
                <mxCell id="jM-bACAt7TGIaR6FnqXF-21" value="" style="endArrow=none;html=1;rounded=0;endFill=0;" parent="1" edge="1">
                    <mxGeometry relative="1" as="geometry">
                        <mxPoint x="246" y="70" as="sourcePoint"/>
                        <mxPoint x="246" y="190" as="targetPoint"/>
                    </mxGeometry>
                </mxCell>
                <mxCell id="jM-bACAt7TGIaR6FnqXF-22" value="N" style="edgeLabel;resizable=0;html=1;align=left;verticalAlign=bottom;" parent="jM-bACAt7TGIaR6FnqXF-21" connectable="0" vertex="1">
                    <mxGeometry x="-1" relative="1" as="geometry">
                        <mxPoint x="-16" y="20" as="offset"/>
                    </mxGeometry>
                </mxCell>
                <mxCell id="jM-bACAt7TGIaR6FnqXF-23" value="N" style="edgeLabel;resizable=0;html=1;align=right;verticalAlign=bottom;" parent="jM-bACAt7TGIaR6FnqXF-21" connectable="0" vertex="1">
                    <mxGeometry x="1" relative="1" as="geometry">
                        <mxPoint x="-6" as="offset"/>
                    </mxGeometry>
                </mxCell>
                <mxCell id="jM-bACAt7TGIaR6FnqXF-24" value="" style="endArrow=none;html=1;rounded=0;endFill=0;" parent="1" edge="1">
                    <mxGeometry relative="1" as="geometry">
                        <mxPoint x="210" y="10" as="sourcePoint"/>
                        <mxPoint x="370" y="10" as="targetPoint"/>
                    </mxGeometry>
                </mxCell>
                <mxCell id="jM-bACAt7TGIaR6FnqXF-25" value="N" style="edgeLabel;resizable=0;html=1;align=left;verticalAlign=bottom;" parent="jM-bACAt7TGIaR6FnqXF-24" connectable="0" vertex="1">
                    <mxGeometry x="-1" relative="1" as="geometry">
                        <mxPoint y="20" as="offset"/>
                    </mxGeometry>
                </mxCell>
                <mxCell id="jM-bACAt7TGIaR6FnqXF-26" value="N" style="edgeLabel;resizable=0;html=1;align=right;verticalAlign=bottom;" parent="jM-bACAt7TGIaR6FnqXF-24" connectable="0" vertex="1">
                    <mxGeometry x="1" relative="1" as="geometry">
                        <mxPoint y="20" as="offset"/>
                    </mxGeometry>
                </mxCell>
                <mxCell id="jM-bACAt7TGIaR6FnqXF-31" value="" style="endArrow=none;html=1;rounded=0;endFill=0;" parent="1" edge="1">
                    <mxGeometry relative="1" as="geometry">
                        <mxPoint x="210" y="70" as="sourcePoint"/>
                        <mxPoint x="210" y="190" as="targetPoint"/>
                    </mxGeometry>
                </mxCell>
                <mxCell id="jM-bACAt7TGIaR6FnqXF-32" value="N" style="edgeLabel;resizable=0;html=1;align=left;verticalAlign=bottom;" parent="jM-bACAt7TGIaR6FnqXF-31" connectable="0" vertex="1">
                    <mxGeometry x="-1" relative="1" as="geometry">
                        <mxPoint x="4" y="20" as="offset"/>
                    </mxGeometry>
                </mxCell>
                <mxCell id="jM-bACAt7TGIaR6FnqXF-33" value="N" style="edgeLabel;resizable=0;html=1;align=right;verticalAlign=bottom;" parent="jM-bACAt7TGIaR6FnqXF-31" connectable="0" vertex="1">
                    <mxGeometry x="1" relative="1" as="geometry">
                        <mxPoint x="15" as="offset"/>
                    </mxGeometry>
                </mxCell>
                <mxCell id="jM-bACAt7TGIaR6FnqXF-112" value="" style="rounded=0;whiteSpace=wrap;html=1;strokeColor=#FF0000;fontSize=19;" parent="1" vertex="1">
                    <mxGeometry x="80" y="10" width="100" height="40" as="geometry"/>
                </mxCell>
                <mxCell id="jM-bACAt7TGIaR6FnqXF-113" value="" style="ellipse;whiteSpace=wrap;html=1;gradientColor=none;strokeColor=#66FFFF;" parent="1" vertex="1">
                    <mxGeometry x="72" y="70" width="116" height="40" as="geometry"/>
                </mxCell>
                <mxCell id="jM-bACAt7TGIaR6FnqXF-117" value="" style="rhombus;whiteSpace=wrap;html=1;strokeColor=#FFFF00;" parent="1" vertex="1">
                    <mxGeometry x="100" y="130" width="60" height="60" as="geometry"/>
                </mxCell>
                <mxCell id="jM-bACAt7TGIaR6FnqXF-118" value="" style="endArrow=none;html=1;rounded=0;" parent="1" edge="1">
                    <mxGeometry width="50" height="50" relative="1" as="geometry">
                        <mxPoint x="270" y="190" as="sourcePoint"/>
                        <mxPoint x="270" y="70" as="targetPoint"/>
                    </mxGeometry>
                </mxCell>
                <mxCell id="7TsA_BBkoy_5Goe65WF2-1" value="Pais" style="rounded=0;whiteSpace=wrap;html=1;strokeColor=#FF0000;fontSize=19;" parent="1" vertex="1">
                    <mxGeometry x="540" y="-80" width="100" height="40" as="geometry"/>
                </mxCell>
                <mxCell id="7TsA_BBkoy_5Goe65WF2-2" value="Comuna" style="rounded=0;whiteSpace=wrap;html=1;strokeColor=#FF0000;fontSize=19;" parent="1" vertex="1">
                    <mxGeometry x="1154" y="-80" width="100" height="40" as="geometry"/>
                </mxCell>
                <mxCell id="7TsA_BBkoy_5Goe65WF2-3" value="Region" style="rounded=0;whiteSpace=wrap;html=1;strokeColor=#FF0000;fontSize=19;" parent="1" vertex="1">
                    <mxGeometry x="838" y="-80" width="100" height="40" as="geometry"/>
                </mxCell>
                <mxCell id="7TsA_BBkoy_5Goe65WF2-4" value="NombrePais" style="ellipse;whiteSpace=wrap;html=1;gradientColor=none;strokeColor=#66FFFF;" parent="1" vertex="1">
                    <mxGeometry x="532" y="-130" width="116" height="40" as="geometry"/>
                </mxCell>
                <mxCell id="7TsA_BBkoy_5Goe65WF2-5" value="NombreRegion" style="ellipse;whiteSpace=wrap;html=1;gradientColor=none;strokeColor=#66FFFF;" parent="1" vertex="1">
                    <mxGeometry x="830" y="-130" width="116" height="40" as="geometry"/>
                </mxCell>
                <mxCell id="7TsA_BBkoy_5Goe65WF2-7" value="Tiene" style="rhombus;whiteSpace=wrap;html=1;strokeColor=#FFFF00;" parent="1" vertex="1">
                    <mxGeometry x="710" y="-90" width="60" height="60" as="geometry"/>
                </mxCell>
                <mxCell id="7TsA_BBkoy_5Goe65WF2-8" value="Compuesta" style="rhombus;whiteSpace=wrap;html=1;strokeColor=#FFFF00;" parent="1" vertex="1">
                    <mxGeometry x="1008" y="-90" width="60" height="60" as="geometry"/>
                </mxCell>
                <mxCell id="7TsA_BBkoy_5Goe65WF2-9" value="" style="endArrow=none;html=1;rounded=0;endFill=0;exitX=1;exitY=0.5;exitDx=0;exitDy=0;entryX=0;entryY=0.5;entryDx=0;entryDy=0;" parent="1" source="7TsA_BBkoy_5Goe65WF2-1" target="7TsA_BBkoy_5Goe65WF2-7" edge="1">
                    <mxGeometry relative="1" as="geometry">
                        <mxPoint x="510" y="10" as="sourcePoint"/>
                        <mxPoint x="730" y="-80" as="targetPoint"/>
                    </mxGeometry>
                </mxCell>
                <mxCell id="7TsA_BBkoy_5Goe65WF2-10" value="1" style="edgeLabel;resizable=0;html=1;align=left;verticalAlign=bottom;" parent="7TsA_BBkoy_5Goe65WF2-9" connectable="0" vertex="1">
                    <mxGeometry x="-1" relative="1" as="geometry">
                        <mxPoint x="8" y="20" as="offset"/>
                    </mxGeometry>
                </mxCell>
                <mxCell id="7TsA_BBkoy_5Goe65WF2-12" value="" style="endArrow=none;html=1;rounded=0;endFill=0;exitX=1;exitY=0.5;exitDx=0;exitDy=0;entryX=0;entryY=0.5;entryDx=0;entryDy=0;" parent="1" source="7TsA_BBkoy_5Goe65WF2-7" target="7TsA_BBkoy_5Goe65WF2-3" edge="1">
                    <mxGeometry relative="1" as="geometry">
                        <mxPoint x="610" y="30" as="sourcePoint"/>
                        <mxPoint x="610" y="150" as="targetPoint"/>
                    </mxGeometry>
                </mxCell>
                <mxCell id="7TsA_BBkoy_5Goe65WF2-14" value="N" style="edgeLabel;resizable=0;html=1;align=right;verticalAlign=bottom;" parent="7TsA_BBkoy_5Goe65WF2-12" connectable="0" vertex="1">
                    <mxGeometry x="1" relative="1" as="geometry">
                        <mxPoint x="-8" y="20" as="offset"/>
                    </mxGeometry>
                </mxCell>
                <mxCell id="7TsA_BBkoy_5Goe65WF2-71" value="NombreComuna" style="ellipse;whiteSpace=wrap;html=1;gradientColor=none;strokeColor=#66FFFF;" parent="1" vertex="1">
                    <mxGeometry x="1146" y="-130" width="116" height="40" as="geometry"/>
                </mxCell>
                <mxCell id="7TsA_BBkoy_5Goe65WF2-190" value="Pais" style="rounded=0;whiteSpace=wrap;html=1;strokeColor=#FF0000;fontSize=19;" parent="1" vertex="1">
                    <mxGeometry x="488" y="790" width="100" height="40" as="geometry"/>
                </mxCell>
                <mxCell id="7TsA_BBkoy_5Goe65WF2-191" value="Comuna" style="rounded=0;whiteSpace=wrap;html=1;strokeColor=#FF0000;fontSize=19;" parent="1" vertex="1">
                    <mxGeometry x="1102" y="790" width="100" height="40" as="geometry"/>
                </mxCell>
                <mxCell id="7TsA_BBkoy_5Goe65WF2-192" value="Region" style="rounded=0;whiteSpace=wrap;html=1;strokeColor=#FF0000;fontSize=19;" parent="1" vertex="1">
                    <mxGeometry x="786" y="790" width="100" height="40" as="geometry"/>
                </mxCell>
                <mxCell id="7TsA_BBkoy_5Goe65WF2-193" value="NombrePais" style="ellipse;whiteSpace=wrap;html=1;gradientColor=none;strokeColor=#66FFFF;" parent="1" vertex="1">
                    <mxGeometry x="480" y="740" width="116" height="40" as="geometry"/>
                </mxCell>
                <mxCell id="7TsA_BBkoy_5Goe65WF2-194" value="NombreRegion" style="ellipse;whiteSpace=wrap;html=1;gradientColor=none;strokeColor=#66FFFF;" parent="1" vertex="1">
                    <mxGeometry x="778" y="740" width="116" height="40" as="geometry"/>
                </mxCell>
                <mxCell id="7TsA_BBkoy_5Goe65WF2-195" value="Tiene" style="rhombus;whiteSpace=wrap;html=1;strokeColor=#FFFF00;" parent="1" vertex="1">
                    <mxGeometry x="658" y="780" width="60" height="60" as="geometry"/>
                </mxCell>
                <mxCell id="7TsA_BBkoy_5Goe65WF2-196" value="Compuesta" style="rhombus;whiteSpace=wrap;html=1;strokeColor=#FFFF00;" parent="1" vertex="1">
                    <mxGeometry x="956" y="780" width="60" height="60" as="geometry"/>
                </mxCell>
                <mxCell id="7TsA_BBkoy_5Goe65WF2-197" value="" style="endArrow=none;html=1;rounded=0;endFill=0;exitX=1;exitY=0.5;exitDx=0;exitDy=0;entryX=0;entryY=0.5;entryDx=0;entryDy=0;" parent="1" source="7TsA_BBkoy_5Goe65WF2-190" target="7TsA_BBkoy_5Goe65WF2-195" edge="1">
                    <mxGeometry relative="1" as="geometry">
                        <mxPoint x="458" y="880" as="sourcePoint"/>
                        <mxPoint x="678" y="790" as="targetPoint"/>
                    </mxGeometry>
                </mxCell>
                <mxCell id="7TsA_BBkoy_5Goe65WF2-198" value="1" style="edgeLabel;resizable=0;html=1;align=left;verticalAlign=bottom;" parent="7TsA_BBkoy_5Goe65WF2-197" connectable="0" vertex="1">
                    <mxGeometry x="-1" relative="1" as="geometry">
                        <mxPoint x="8" y="20" as="offset"/>
                    </mxGeometry>
                </mxCell>
                <mxCell id="7TsA_BBkoy_5Goe65WF2-199" value="" style="endArrow=none;html=1;rounded=0;endFill=0;exitX=1;exitY=0.5;exitDx=0;exitDy=0;entryX=0;entryY=0.5;entryDx=0;entryDy=0;" parent="1" source="7TsA_BBkoy_5Goe65WF2-195" target="7TsA_BBkoy_5Goe65WF2-192" edge="1">
                    <mxGeometry relative="1" as="geometry">
                        <mxPoint x="558" y="900" as="sourcePoint"/>
                        <mxPoint x="558" y="1020" as="targetPoint"/>
                    </mxGeometry>
                </mxCell>
                <mxCell id="7TsA_BBkoy_5Goe65WF2-200" value="N" style="edgeLabel;resizable=0;html=1;align=right;verticalAlign=bottom;" parent="7TsA_BBkoy_5Goe65WF2-199" connectable="0" vertex="1">
                    <mxGeometry x="1" relative="1" as="geometry">
                        <mxPoint x="-8" y="20" as="offset"/>
                    </mxGeometry>
                </mxCell>
                <mxCell id="7TsA_BBkoy_5Goe65WF2-201" value="" style="endArrow=none;html=1;rounded=0;endFill=0;exitX=1;exitY=0.5;exitDx=0;exitDy=0;entryX=0;entryY=0.5;entryDx=0;entryDy=0;" parent="1" source="7TsA_BBkoy_5Goe65WF2-196" target="7TsA_BBkoy_5Goe65WF2-191" edge="1">
                    <mxGeometry relative="1" as="geometry">
                        <mxPoint x="521.44" y="1170" as="sourcePoint"/>
                        <mxPoint x="522" y="1220" as="targetPoint"/>
                    </mxGeometry>
                </mxCell>
                <mxCell id="7TsA_BBkoy_5Goe65WF2-202" value="N" style="edgeLabel;resizable=0;html=1;align=right;verticalAlign=bottom;" parent="7TsA_BBkoy_5Goe65WF2-201" connectable="0" vertex="1">
                    <mxGeometry x="1" relative="1" as="geometry">
                        <mxPoint x="-10" y="20" as="offset"/>
                    </mxGeometry>
                </mxCell>
                <mxCell id="7TsA_BBkoy_5Goe65WF2-203" value="" style="endArrow=none;html=1;rounded=0;endFill=0;exitX=1;exitY=0.5;exitDx=0;exitDy=0;entryX=0;entryY=0.5;entryDx=0;entryDy=0;" parent="1" source="7TsA_BBkoy_5Goe65WF2-192" target="7TsA_BBkoy_5Goe65WF2-196" edge="1">
                    <mxGeometry relative="1" as="geometry">
                        <mxPoint x="528" y="840" as="sourcePoint"/>
                        <mxPoint x="528" y="890" as="targetPoint"/>
                    </mxGeometry>
                </mxCell>
                <mxCell id="7TsA_BBkoy_5Goe65WF2-204" value="1" style="edgeLabel;resizable=0;html=1;align=left;verticalAlign=bottom;" parent="7TsA_BBkoy_5Goe65WF2-203" connectable="0" vertex="1">
                    <mxGeometry x="-1" relative="1" as="geometry">
                        <mxPoint x="4" y="20" as="offset"/>
                    </mxGeometry>
                </mxCell>
                <mxCell id="7TsA_BBkoy_5Goe65WF2-205" value="NombreComuna" style="ellipse;whiteSpace=wrap;html=1;gradientColor=none;strokeColor=#66FFFF;" parent="1" vertex="1">
                    <mxGeometry x="1094" y="740" width="116" height="40" as="geometry"/>
                </mxCell>
                <mxCell id="7TsA_BBkoy_5Goe65WF2-206" value="LugarGeografico" style="ellipse;whiteSpace=wrap;html=1;gradientColor=none;strokeColor=#66FFFF;" parent="1" vertex="1">
                    <mxGeometry x="1617" y="690" width="116" height="40" as="geometry"/>
                </mxCell>
                <mxCell id="7TsA_BBkoy_5Goe65WF2-207" value="Comisarias" style="rounded=0;whiteSpace=wrap;html=1;strokeColor=#FF0000;fontSize=19;flipV=0;flipH=1;" parent="1" vertex="1">
                    <mxGeometry x="1507" y="730" width="100" height="40" as="geometry"/>
                </mxCell>
                <mxCell id="7TsA_BBkoy_5Goe65WF2-208" value="Elem1" style="rhombus;whiteSpace=wrap;html=1;strokeColor=#FFFF00;flipV=0;flipH=1;" parent="1" vertex="1">
                    <mxGeometry x="1367" y="720" width="60" height="60" as="geometry"/>
                </mxCell>
                <mxCell id="7TsA_BBkoy_5Goe65WF2-209" value="" style="endArrow=none;html=1;rounded=0;endFill=0;exitX=1;exitY=0.5;exitDx=0;exitDy=0;entryX=0;entryY=0.5;entryDx=0;entryDy=0;" parent="1" source="7TsA_BBkoy_5Goe65WF2-208" target="7TsA_BBkoy_5Goe65WF2-207" edge="1">
                    <mxGeometry relative="1" as="geometry">
                        <mxPoint x="1423" y="750" as="sourcePoint"/>
                        <mxPoint x="1491" y="750" as="targetPoint"/>
                    </mxGeometry>
                </mxCell>
                <mxCell id="7TsA_BBkoy_5Goe65WF2-210" value="N" style="edgeLabel;resizable=0;html=1;align=right;verticalAlign=bottom;" parent="7TsA_BBkoy_5Goe65WF2-209" connectable="0" vertex="1">
                    <mxGeometry x="1" relative="1" as="geometry">
                        <mxPoint x="-8" y="20" as="offset"/>
                    </mxGeometry>
                </mxCell>
                <mxCell id="7TsA_BBkoy_5Goe65WF2-211" value="" style="endArrow=none;html=1;rounded=0;endFill=0;exitX=1;exitY=0;exitDx=0;exitDy=0;entryX=0;entryY=0.5;entryDx=0;entryDy=0;" parent="1" source="7TsA_BBkoy_5Goe65WF2-191" target="7TsA_BBkoy_5Goe65WF2-208" edge="1">
                    <mxGeometry relative="1" as="geometry">
                        <mxPoint x="1527" y="690" as="sourcePoint"/>
                        <mxPoint x="1647" y="820" as="targetPoint"/>
                    </mxGeometry>
                </mxCell>
                <mxCell id="7TsA_BBkoy_5Goe65WF2-212" value="1" style="edgeLabel;resizable=0;html=1;align=right;verticalAlign=bottom;" parent="7TsA_BBkoy_5Goe65WF2-211" connectable="0" vertex="1">
                    <mxGeometry x="1" relative="1" as="geometry">
                        <mxPoint x="-148" y="30" as="offset"/>
                    </mxGeometry>
                </mxCell>
                <mxCell id="7TsA_BBkoy_5Goe65WF2-213" value="Arrestos" style="ellipse;whiteSpace=wrap;html=1;gradientColor=none;strokeColor=#66FFFF;" parent="1" vertex="1">
                    <mxGeometry x="1617" y="730" width="116" height="40" as="geometry"/>
                </mxCell>
                <mxCell id="7TsA_BBkoy_5Goe65WF2-214" value="Elem2" style="rhombus;whiteSpace=wrap;html=1;strokeColor=#FFFF00;flipV=0;flipH=1;" parent="1" vertex="1">
                    <mxGeometry x="1367" y="840" width="60" height="60" as="geometry"/>
                </mxCell>
                <mxCell id="7TsA_BBkoy_5Goe65WF2-215" value="Bomberos" style="rounded=0;whiteSpace=wrap;html=1;strokeColor=#FF0000;fontSize=19;flipV=0;flipH=1;" parent="1" vertex="1">
                    <mxGeometry x="1507" y="850" width="100" height="40" as="geometry"/>
                </mxCell>
                <mxCell id="7TsA_BBkoy_5Goe65WF2-216" value="" style="endArrow=none;html=1;rounded=0;endFill=0;exitX=1;exitY=0.5;exitDx=0;exitDy=0;entryX=0;entryY=0.5;entryDx=0;entryDy=0;" parent="1" source="7TsA_BBkoy_5Goe65WF2-214" target="7TsA_BBkoy_5Goe65WF2-215" edge="1">
                    <mxGeometry relative="1" as="geometry">
                        <mxPoint x="1437" y="760" as="sourcePoint"/>
                        <mxPoint x="1507" y="880" as="targetPoint"/>
                    </mxGeometry>
                </mxCell>
                <mxCell id="7TsA_BBkoy_5Goe65WF2-217" value="N" style="edgeLabel;resizable=0;html=1;align=right;verticalAlign=bottom;" parent="7TsA_BBkoy_5Goe65WF2-216" connectable="0" vertex="1">
                    <mxGeometry x="1" relative="1" as="geometry">
                        <mxPoint x="-8" y="20" as="offset"/>
                    </mxGeometry>
                </mxCell>
                <mxCell id="7TsA_BBkoy_5Goe65WF2-218" value="" style="endArrow=none;html=1;rounded=0;endFill=0;exitX=1;exitY=0;exitDx=0;exitDy=0;entryX=0;entryY=0.5;entryDx=0;entryDy=0;" parent="1" source="7TsA_BBkoy_5Goe65WF2-191" target="7TsA_BBkoy_5Goe65WF2-214" edge="1">
                    <mxGeometry relative="1" as="geometry">
                        <mxPoint x="1477" y="690" as="sourcePoint"/>
                        <mxPoint x="1537" y="790" as="targetPoint"/>
                    </mxGeometry>
                </mxCell>
                <mxCell id="7TsA_BBkoy_5Goe65WF2-219" value="1" style="edgeLabel;resizable=0;html=1;align=right;verticalAlign=bottom;" parent="7TsA_BBkoy_5Goe65WF2-218" connectable="0" vertex="1">
                    <mxGeometry x="1" relative="1" as="geometry">
                        <mxPoint x="-130" y="-70" as="offset"/>
                    </mxGeometry>
                </mxCell>
                <mxCell id="7TsA_BBkoy_5Goe65WF2-220" value="Personal" style="ellipse;whiteSpace=wrap;html=1;gradientColor=none;strokeColor=#66FFFF;" parent="1" vertex="1">
                    <mxGeometry x="1617" y="770" width="116" height="40" as="geometry"/>
                </mxCell>
                <mxCell id="7TsA_BBkoy_5Goe65WF2-221" value="LugarGeografico" style="ellipse;whiteSpace=wrap;html=1;gradientColor=none;strokeColor=#66FFFF;" parent="1" vertex="1">
                    <mxGeometry x="1617" y="850" width="116" height="40" as="geometry"/>
                </mxCell>
                <mxCell id="7TsA_BBkoy_5Goe65WF2-222" value="Incendios | Fecha" style="ellipse;whiteSpace=wrap;html=1;gradientColor=none;strokeColor=#66FFFF;" parent="1" vertex="1">
                    <mxGeometry x="1617" y="890" width="116" height="40" as="geometry"/>
                </mxCell>
                <mxCell id="7TsA_BBkoy_5Goe65WF2-223" value="Personal" style="ellipse;whiteSpace=wrap;html=1;gradientColor=none;strokeColor=#66FFFF;" parent="1" vertex="1">
                    <mxGeometry x="1617" y="930" width="116" height="40" as="geometry"/>
                </mxCell>
                <mxCell id="7TsA_BBkoy_5Goe65WF2-241" value="Nombre" style="ellipse;whiteSpace=wrap;html=1;gradientColor=none;strokeColor=#66FFFF;" parent="1" vertex="1">
                    <mxGeometry x="1617" y="1000" width="116" height="40" as="geometry"/>
                </mxCell>
                <mxCell id="7TsA_BBkoy_5Goe65WF2-242" value="Colegios" style="rounded=0;whiteSpace=wrap;html=1;strokeColor=#FF0000;fontSize=19;flipV=0;flipH=1;" parent="1" vertex="1">
                    <mxGeometry x="1507" y="1040" width="100" height="40" as="geometry"/>
                </mxCell>
                <mxCell id="7TsA_BBkoy_5Goe65WF2-243" value="Elem3" style="rhombus;whiteSpace=wrap;html=1;strokeColor=#FFFF00;flipV=0;flipH=1;" parent="1" vertex="1">
                    <mxGeometry x="1367" y="1030" width="60" height="60" as="geometry"/>
                </mxCell>
                <mxCell id="7TsA_BBkoy_5Goe65WF2-244" value="" style="endArrow=none;html=1;rounded=0;endFill=0;exitX=1;exitY=0.5;exitDx=0;exitDy=0;entryX=0;entryY=0.5;entryDx=0;entryDy=0;" parent="1" source="7TsA_BBkoy_5Goe65WF2-243" target="7TsA_BBkoy_5Goe65WF2-242" edge="1">
                    <mxGeometry relative="1" as="geometry">
                        <mxPoint x="1423" y="1060" as="sourcePoint"/>
                        <mxPoint x="1491" y="1060" as="targetPoint"/>
                    </mxGeometry>
                </mxCell>
                <mxCell id="7TsA_BBkoy_5Goe65WF2-245" value="N" style="edgeLabel;resizable=0;html=1;align=right;verticalAlign=bottom;" parent="7TsA_BBkoy_5Goe65WF2-244" connectable="0" vertex="1">
                    <mxGeometry x="1" relative="1" as="geometry">
                        <mxPoint x="-8" y="20" as="offset"/>
                    </mxGeometry>
                </mxCell>
                <mxCell id="7TsA_BBkoy_5Goe65WF2-246" value="Alumnos" style="ellipse;whiteSpace=wrap;html=1;gradientColor=none;strokeColor=#66FFFF;" parent="1" vertex="1">
                    <mxGeometry x="1617" y="1040" width="116" height="40" as="geometry"/>
                </mxCell>
                <mxCell id="7TsA_BBkoy_5Goe65WF2-247" value="Elem4" style="rhombus;whiteSpace=wrap;html=1;strokeColor=#FFFF00;flipV=0;flipH=1;" parent="1" vertex="1">
                    <mxGeometry x="1367" y="1150" width="60" height="60" as="geometry"/>
                </mxCell>
                <mxCell id="7TsA_BBkoy_5Goe65WF2-248" value="Universidades" style="rounded=0;whiteSpace=wrap;html=1;strokeColor=#FF0000;fontSize=19;flipV=0;flipH=1;" parent="1" vertex="1">
                    <mxGeometry x="1507" y="1160" width="100" height="40" as="geometry"/>
                </mxCell>
                <mxCell id="7TsA_BBkoy_5Goe65WF2-249" value="" style="endArrow=none;html=1;rounded=0;endFill=0;exitX=1;exitY=0.5;exitDx=0;exitDy=0;entryX=0;entryY=0.5;entryDx=0;entryDy=0;" parent="1" source="7TsA_BBkoy_5Goe65WF2-247" target="7TsA_BBkoy_5Goe65WF2-248" edge="1">
                    <mxGeometry relative="1" as="geometry">
                        <mxPoint x="1437" y="1070" as="sourcePoint"/>
                        <mxPoint x="1507" y="1190" as="targetPoint"/>
                    </mxGeometry>
                </mxCell>
                <mxCell id="7TsA_BBkoy_5Goe65WF2-250" value="N" style="edgeLabel;resizable=0;html=1;align=right;verticalAlign=bottom;" parent="7TsA_BBkoy_5Goe65WF2-249" connectable="0" vertex="1">
                    <mxGeometry x="1" relative="1" as="geometry">
                        <mxPoint x="-8" y="20" as="offset"/>
                    </mxGeometry>
                </mxCell>
                <mxCell id="7TsA_BBkoy_5Goe65WF2-251" value="ResultadosSimse" style="ellipse;whiteSpace=wrap;html=1;gradientColor=none;strokeColor=#66FFFF;" parent="1" vertex="1">
                    <mxGeometry x="1617" y="1080" width="116" height="40" as="geometry"/>
                </mxCell>
                <mxCell id="7TsA_BBkoy_5Goe65WF2-252" value="Nombre" style="ellipse;whiteSpace=wrap;html=1;gradientColor=none;strokeColor=#66FFFF;" parent="1" vertex="1">
                    <mxGeometry x="1617" y="1160" width="116" height="40" as="geometry"/>
                </mxCell>
                <mxCell id="7TsA_BBkoy_5Goe65WF2-253" value="Aranceles (AVG)" style="ellipse;whiteSpace=wrap;html=1;gradientColor=none;strokeColor=#66FFFF;" parent="1" vertex="1">
                    <mxGeometry x="1617" y="1200" width="116" height="40" as="geometry"/>
                </mxCell>
                <mxCell id="7TsA_BBkoy_5Goe65WF2-254" value="Estudiantes" style="ellipse;whiteSpace=wrap;html=1;gradientColor=none;strokeColor=#66FFFF;" parent="1" vertex="1">
                    <mxGeometry x="1617" y="1240" width="116" height="40" as="geometry"/>
                </mxCell>
                <mxCell id="7TsA_BBkoy_5Goe65WF2-255" value="LugarGeografico" style="ellipse;whiteSpace=wrap;html=1;gradientColor=none;strokeColor=#66FFFF;" parent="1" vertex="1">
                    <mxGeometry x="1617" y="1310" width="116" height="40" as="geometry"/>
                </mxCell>
                <mxCell id="7TsA_BBkoy_5Goe65WF2-256" value="Hospitales" style="rounded=0;whiteSpace=wrap;html=1;strokeColor=#FF0000;fontSize=19;flipV=0;flipH=1;" parent="1" vertex="1">
                    <mxGeometry x="1507" y="1350" width="100" height="40" as="geometry"/>
                </mxCell>
                <mxCell id="7TsA_BBkoy_5Goe65WF2-257" value="Elem5" style="rhombus;whiteSpace=wrap;html=1;strokeColor=#FFFF00;flipV=0;flipH=1;" parent="1" vertex="1">
                    <mxGeometry x="1367" y="1340" width="60" height="60" as="geometry"/>
                </mxCell>
                <mxCell id="7TsA_BBkoy_5Goe65WF2-258" value="" style="endArrow=none;html=1;rounded=0;endFill=0;exitX=1;exitY=0.5;exitDx=0;exitDy=0;entryX=0;entryY=0.5;entryDx=0;entryDy=0;" parent="1" source="7TsA_BBkoy_5Goe65WF2-257" target="7TsA_BBkoy_5Goe65WF2-256" edge="1">
                    <mxGeometry relative="1" as="geometry">
                        <mxPoint x="1423" y="1370" as="sourcePoint"/>
                        <mxPoint x="1491" y="1370" as="targetPoint"/>
                    </mxGeometry>
                </mxCell>
                <mxCell id="7TsA_BBkoy_5Goe65WF2-259" value="N" style="edgeLabel;resizable=0;html=1;align=right;verticalAlign=bottom;" parent="7TsA_BBkoy_5Goe65WF2-258" connectable="0" vertex="1">
                    <mxGeometry x="1" relative="1" as="geometry">
                        <mxPoint x="-8" y="20" as="offset"/>
                    </mxGeometry>
                </mxCell>
                <mxCell id="7TsA_BBkoy_5Goe65WF2-260" value="Coste (AVG)" style="ellipse;whiteSpace=wrap;html=1;gradientColor=none;strokeColor=#66FFFF;" parent="1" vertex="1">
                    <mxGeometry x="1617" y="1350" width="116" height="40" as="geometry"/>
                </mxCell>
                <mxCell id="7TsA_BBkoy_5Goe65WF2-261" value="Elem6" style="rhombus;whiteSpace=wrap;html=1;strokeColor=#FFFF00;flipV=0;flipH=1;" parent="1" vertex="1">
                    <mxGeometry x="1367" y="1460" width="60" height="60" as="geometry"/>
                </mxCell>
                <mxCell id="7TsA_BBkoy_5Goe65WF2-262" value="Farmacias" style="rounded=0;whiteSpace=wrap;html=1;strokeColor=#FF0000;fontSize=19;flipV=0;flipH=1;" parent="1" vertex="1">
                    <mxGeometry x="1507" y="1470" width="100" height="40" as="geometry"/>
                </mxCell>
                <mxCell id="7TsA_BBkoy_5Goe65WF2-263" value="" style="endArrow=none;html=1;rounded=0;endFill=0;exitX=1;exitY=0.5;exitDx=0;exitDy=0;entryX=0;entryY=0.5;entryDx=0;entryDy=0;" parent="1" source="7TsA_BBkoy_5Goe65WF2-261" target="7TsA_BBkoy_5Goe65WF2-262" edge="1">
                    <mxGeometry relative="1" as="geometry">
                        <mxPoint x="1437" y="1380" as="sourcePoint"/>
                        <mxPoint x="1507" y="1500" as="targetPoint"/>
                    </mxGeometry>
                </mxCell>
                <mxCell id="7TsA_BBkoy_5Goe65WF2-264" value="N" style="edgeLabel;resizable=0;html=1;align=right;verticalAlign=bottom;" parent="7TsA_BBkoy_5Goe65WF2-263" connectable="0" vertex="1">
                    <mxGeometry x="1" relative="1" as="geometry">
                        <mxPoint x="-8" y="20" as="offset"/>
                    </mxGeometry>
                </mxCell>
                <mxCell id="7TsA_BBkoy_5Goe65WF2-265" value="Personal" style="ellipse;whiteSpace=wrap;html=1;gradientColor=none;strokeColor=#66FFFF;" parent="1" vertex="1">
                    <mxGeometry x="1617" y="1390" width="116" height="40" as="geometry"/>
                </mxCell>
                <mxCell id="7TsA_BBkoy_5Goe65WF2-266" value="LugarGeografico" style="ellipse;whiteSpace=wrap;html=1;gradientColor=none;strokeColor=#66FFFF;" parent="1" vertex="1">
                    <mxGeometry x="1617" y="1470" width="116" height="40" as="geometry"/>
                </mxCell>
                <mxCell id="7TsA_BBkoy_5Goe65WF2-267" value="Ventas" style="ellipse;whiteSpace=wrap;html=1;gradientColor=none;strokeColor=#66FFFF;" parent="1" vertex="1">
                    <mxGeometry x="1617" y="1510" width="116" height="40" as="geometry"/>
                </mxCell>
                <mxCell id="7TsA_BBkoy_5Goe65WF2-268" value="Personal" style="ellipse;whiteSpace=wrap;html=1;gradientColor=none;strokeColor=#66FFFF;" parent="1" vertex="1">
                    <mxGeometry x="1617" y="1550" width="116" height="40" as="geometry"/>
                </mxCell>
                <mxCell id="7TsA_BBkoy_5Goe65WF2-270" value="LugarGeografico" style="ellipse;whiteSpace=wrap;html=1;gradientColor=none;strokeColor=#66FFFF;" parent="1" vertex="1">
                    <mxGeometry x="1733" y="1160" width="116" height="40" as="geometry"/>
                </mxCell>
                <mxCell id="7TsA_BBkoy_5Goe65WF2-271" value="LugarGeografico" style="ellipse;whiteSpace=wrap;html=1;gradientColor=none;strokeColor=#66FFFF;" parent="1" vertex="1">
                    <mxGeometry x="1733" y="1000" width="116" height="40" as="geometry"/>
                </mxCell>
                <mxCell id="7TsA_BBkoy_5Goe65WF2-272" value="Empleo" style="ellipse;whiteSpace=wrap;html=1;gradientColor=none;strokeColor=#66FFFF;" parent="1" vertex="1">
                    <mxGeometry x="1094" y="620" width="116" height="40" as="geometry"/>
                </mxCell>
                <mxCell id="7TsA_BBkoy_5Goe65WF2-277" value="Descenpleo" style="ellipse;whiteSpace=wrap;html=1;gradientColor=none;strokeColor=#66FFFF;" parent="1" vertex="1">
                    <mxGeometry x="1094" y="660" width="116" height="40" as="geometry"/>
                </mxCell>
                <mxCell id="7TsA_BBkoy_5Goe65WF2-278" value="HabilitadosATrabajar" style="ellipse;whiteSpace=wrap;html=1;gradientColor=none;strokeColor=#66FFFF;" parent="1" vertex="1">
                    <mxGeometry x="1094" y="700" width="116" height="40" as="geometry"/>
                </mxCell>
                <mxCell id="7TsA_BBkoy_5Goe65WF2-288" value="" style="endArrow=none;html=1;rounded=0;endFill=0;exitX=1;exitY=1;exitDx=0;exitDy=0;entryX=0;entryY=0.5;entryDx=0;entryDy=0;" parent="1" source="7TsA_BBkoy_5Goe65WF2-191" target="7TsA_BBkoy_5Goe65WF2-243" edge="1">
                    <mxGeometry relative="1" as="geometry">
                        <mxPoint x="1212" y="800" as="sourcePoint"/>
                        <mxPoint x="1377" y="880" as="targetPoint"/>
                    </mxGeometry>
                </mxCell>
                <mxCell id="7TsA_BBkoy_5Goe65WF2-289" value="1" style="edgeLabel;resizable=0;html=1;align=right;verticalAlign=bottom;" parent="7TsA_BBkoy_5Goe65WF2-288" connectable="0" vertex="1">
                    <mxGeometry x="1" relative="1" as="geometry">
                        <mxPoint x="-154" y="-230" as="offset"/>
                    </mxGeometry>
                </mxCell>
                <mxCell id="7TsA_BBkoy_5Goe65WF2-290" value="" style="endArrow=none;html=1;rounded=0;endFill=0;exitX=1;exitY=1;exitDx=0;exitDy=0;entryX=0;entryY=0.5;entryDx=0;entryDy=0;" parent="1" source="7TsA_BBkoy_5Goe65WF2-191" target="7TsA_BBkoy_5Goe65WF2-247" edge="1">
                    <mxGeometry relative="1" as="geometry">
                        <mxPoint x="1212" y="840" as="sourcePoint"/>
                        <mxPoint x="1377" y="1070" as="targetPoint"/>
                    </mxGeometry>
                </mxCell>
                <mxCell id="7TsA_BBkoy_5Goe65WF2-296" value="" style="endArrow=none;html=1;rounded=0;endFill=0;exitX=0.5;exitY=1;exitDx=0;exitDy=0;entryX=0;entryY=0.5;entryDx=0;entryDy=0;" parent="1" source="7TsA_BBkoy_5Goe65WF2-191" target="7TsA_BBkoy_5Goe65WF2-257" edge="1">
                    <mxGeometry relative="1" as="geometry">
                        <mxPoint x="1212" y="840" as="sourcePoint"/>
                        <mxPoint x="1377" y="1070" as="targetPoint"/>
                    </mxGeometry>
                </mxCell>
                <mxCell id="7TsA_BBkoy_5Goe65WF2-297" value="1" style="edgeLabel;resizable=0;html=1;align=right;verticalAlign=bottom;" parent="7TsA_BBkoy_5Goe65WF2-296" connectable="0" vertex="1">
                    <mxGeometry x="1" relative="1" as="geometry">
                        <mxPoint x="-190" y="-520" as="offset"/>
                    </mxGeometry>
                </mxCell>
                <mxCell id="7TsA_BBkoy_5Goe65WF2-298" value="" style="endArrow=none;html=1;rounded=0;endFill=0;exitX=0.5;exitY=1;exitDx=0;exitDy=0;entryX=0;entryY=0.5;entryDx=0;entryDy=0;" parent="1" source="7TsA_BBkoy_5Goe65WF2-191" target="7TsA_BBkoy_5Goe65WF2-261" edge="1">
                    <mxGeometry relative="1" as="geometry">
                        <mxPoint x="1222" y="850" as="sourcePoint"/>
                        <mxPoint x="1387" y="1080" as="targetPoint"/>
                    </mxGeometry>
                </mxCell>
                <mxCell id="7TsA_BBkoy_5Goe65WF2-299" value="1" style="edgeLabel;resizable=0;html=1;align=right;verticalAlign=bottom;" parent="7TsA_BBkoy_5Goe65WF2-298" connectable="0" vertex="1">
                    <mxGeometry x="1" relative="1" as="geometry">
                        <mxPoint x="-220" y="-630" as="offset"/>
                    </mxGeometry>
                </mxCell>
                <mxCell id="2" value="ComunaID" style="ellipse;whiteSpace=wrap;html=1;gradientColor=none;strokeColor=#66FFFF;" vertex="1" parent="1">
                    <mxGeometry x="1146" y="-170" width="116" height="40" as="geometry"/>
                </mxCell>
                <mxCell id="3" value="Presenta" style="rhombus;whiteSpace=wrap;html=1;strokeColor=#FFFF00;" vertex="1" parent="1">
                    <mxGeometry x="1380" y="-90" width="60" height="60" as="geometry"/>
                </mxCell>
                <mxCell id="4" value="Establecimiento" style="rounded=0;whiteSpace=wrap;html=1;strokeColor=#FF0000;fontSize=19;" vertex="1" parent="1">
                    <mxGeometry x="1570" y="-80" width="100" height="40" as="geometry"/>
                </mxCell>
                <mxCell id="5" value="NombreEstablecimiento" style="ellipse;whiteSpace=wrap;html=1;gradientColor=none;strokeColor=#66FFFF;" vertex="1" parent="1">
                    <mxGeometry x="1562" y="-130" width="116" height="40" as="geometry"/>
                </mxCell>
                <mxCell id="6" value="EstablecimientoID" style="ellipse;whiteSpace=wrap;html=1;gradientColor=none;strokeColor=#66FFFF;" vertex="1" parent="1">
                    <mxGeometry x="1562" y="-170" width="116" height="40" as="geometry"/>
                </mxCell>
                <mxCell id="8" value="Tipo" style="rounded=0;whiteSpace=wrap;html=1;strokeColor=#FF0000;fontSize=19;" vertex="1" parent="1">
                    <mxGeometry x="1570" y="170" width="100" height="40" as="geometry"/>
                </mxCell>
                <mxCell id="9" value="Son" style="rhombus;whiteSpace=wrap;html=1;strokeColor=#FFFF00;" vertex="1" parent="1">
                    <mxGeometry x="1590" y="30" width="60" height="60" as="geometry"/>
                </mxCell>
                <mxCell id="10" value="Descripcion" style="ellipse;whiteSpace=wrap;html=1;gradientColor=none;strokeColor=#66FFFF;" vertex="1" parent="1">
                    <mxGeometry x="1562" y="260" width="116" height="40" as="geometry"/>
                </mxCell>
                <mxCell id="11" value="TIpoID" style="ellipse;whiteSpace=wrap;html=1;gradientColor=none;strokeColor=#66FFFF;" vertex="1" parent="1">
                    <mxGeometry x="1562" y="220" width="116" height="40" as="geometry"/>
                </mxCell>
                <mxCell id="14" value="Poblacion" style="ellipse;whiteSpace=wrap;html=1;gradientColor=none;strokeColor=#66FFFF;" vertex="1" parent="1">
                    <mxGeometry x="1146" y="-210" width="116" height="40" as="geometry"/>
                </mxCell>
                <mxCell id="15" value="Superficie" style="ellipse;whiteSpace=wrap;html=1;gradientColor=none;strokeColor=#66FFFF;" vertex="1" parent="1">
                    <mxGeometry x="1088" y="-290" width="116" height="40" as="geometry"/>
                </mxCell>
                <mxCell id="16" value="" style="endArrow=none;html=1;rounded=0;endFill=0;exitX=1;exitY=0.5;exitDx=0;exitDy=0;entryX=0;entryY=0.5;entryDx=0;entryDy=0;" edge="1" parent="1" source="7TsA_BBkoy_5Goe65WF2-3" target="7TsA_BBkoy_5Goe65WF2-8">
                    <mxGeometry relative="1" as="geometry">
                        <mxPoint x="650" y="-50" as="sourcePoint"/>
                        <mxPoint x="720" y="-50" as="targetPoint"/>
                    </mxGeometry>
                </mxCell>
                <mxCell id="17" value="1" style="edgeLabel;resizable=0;html=1;align=left;verticalAlign=bottom;" connectable="0" vertex="1" parent="16">
                    <mxGeometry x="-1" relative="1" as="geometry">
                        <mxPoint x="8" y="20" as="offset"/>
                    </mxGeometry>
                </mxCell>
                <mxCell id="18" value="" style="endArrow=none;html=1;rounded=0;endFill=0;exitX=1;exitY=0.5;exitDx=0;exitDy=0;entryX=0;entryY=0.5;entryDx=0;entryDy=0;" edge="1" parent="1" source="7TsA_BBkoy_5Goe65WF2-8" target="7TsA_BBkoy_5Goe65WF2-2">
                    <mxGeometry relative="1" as="geometry">
                        <mxPoint x="780" y="-50" as="sourcePoint"/>
                        <mxPoint x="848" y="-50" as="targetPoint"/>
                    </mxGeometry>
                </mxCell>
                <mxCell id="19" value="N" style="edgeLabel;resizable=0;html=1;align=right;verticalAlign=bottom;" connectable="0" vertex="1" parent="18">
                    <mxGeometry x="1" relative="1" as="geometry">
                        <mxPoint x="-8" y="20" as="offset"/>
                    </mxGeometry>
                </mxCell>
                <mxCell id="20" value="" style="endArrow=none;html=1;rounded=0;endFill=0;exitX=1;exitY=0.5;exitDx=0;exitDy=0;entryX=0;entryY=0.5;entryDx=0;entryDy=0;" edge="1" parent="1" source="3" target="4">
                    <mxGeometry relative="1" as="geometry">
                        <mxPoint x="790" y="-40" as="sourcePoint"/>
                        <mxPoint x="858" y="-40" as="targetPoint"/>
                    </mxGeometry>
                </mxCell>
                <mxCell id="21" value="N" style="edgeLabel;resizable=0;html=1;align=right;verticalAlign=bottom;" connectable="0" vertex="1" parent="20">
                    <mxGeometry x="1" relative="1" as="geometry">
                        <mxPoint x="-8" y="20" as="offset"/>
                    </mxGeometry>
                </mxCell>
                <mxCell id="24" value="" style="endArrow=none;html=1;rounded=0;endFill=0;exitX=1;exitY=0.5;exitDx=0;exitDy=0;entryX=0;entryY=0.5;entryDx=0;entryDy=0;" edge="1" parent="1" source="7TsA_BBkoy_5Goe65WF2-2" target="3">
                    <mxGeometry relative="1" as="geometry">
                        <mxPoint x="948" y="-50" as="sourcePoint"/>
                        <mxPoint x="1018" y="-50" as="targetPoint"/>
                    </mxGeometry>
                </mxCell>
                <mxCell id="25" value="1" style="edgeLabel;resizable=0;html=1;align=left;verticalAlign=bottom;" connectable="0" vertex="1" parent="24">
                    <mxGeometry x="-1" relative="1" as="geometry">
                        <mxPoint x="8" y="20" as="offset"/>
                    </mxGeometry>
                </mxCell>
                <mxCell id="26" value="" style="endArrow=none;html=1;rounded=0;endFill=0;exitX=0.5;exitY=0;exitDx=0;exitDy=0;entryX=0.5;entryY=1;entryDx=0;entryDy=0;" edge="1" parent="1" source="8" target="9">
                    <mxGeometry relative="1" as="geometry">
                        <mxPoint x="1272" y="-50" as="sourcePoint"/>
                        <mxPoint x="1398" y="-50" as="targetPoint"/>
                    </mxGeometry>
                </mxCell>
                <mxCell id="27" value="1" style="edgeLabel;resizable=0;html=1;align=left;verticalAlign=bottom;" connectable="0" vertex="1" parent="26">
                    <mxGeometry x="-1" relative="1" as="geometry">
                        <mxPoint x="5" as="offset"/>
                    </mxGeometry>
                </mxCell>
                <mxCell id="28" value="" style="endArrow=none;html=1;rounded=0;endFill=0;exitX=0.5;exitY=0;exitDx=0;exitDy=0;entryX=0.5;entryY=1;entryDx=0;entryDy=0;" edge="1" parent="1" source="9" target="4">
                    <mxGeometry relative="1" as="geometry">
                        <mxPoint x="1622" y="180" as="sourcePoint"/>
                        <mxPoint x="1622" y="100" as="targetPoint"/>
                    </mxGeometry>
                </mxCell>
                <mxCell id="29" value="N" style="edgeLabel;resizable=0;html=1;align=left;verticalAlign=bottom;" connectable="0" vertex="1" parent="28">
                    <mxGeometry x="-1" relative="1" as="geometry">
                        <mxPoint x="4" y="-50" as="offset"/>
                    </mxGeometry>
                </mxCell>
                <mxCell id="32" value="PosiblesTabajadores" style="ellipse;whiteSpace=wrap;html=1;gradientColor=none;strokeColor=#66FFFF;" vertex="1" parent="1">
                    <mxGeometry x="1088" y="-250" width="116" height="40" as="geometry"/>
                </mxCell>
                <mxCell id="33" value="TrabajadoresM" style="ellipse;whiteSpace=wrap;html=1;gradientColor=none;strokeColor=#66FFFF;" vertex="1" parent="1">
                    <mxGeometry x="1204" y="-250" width="116" height="40" as="geometry"/>
                </mxCell>
                <mxCell id="35" value="TrabajadoresF" style="ellipse;whiteSpace=wrap;html=1;gradientColor=none;strokeColor=#66FFFF;" vertex="1" parent="1">
                    <mxGeometry x="1204" y="-290" width="116" height="40" as="geometry"/>
                </mxCell>
            </root>
        </mxGraphModel>
    </diagram>
</mxfile>